P2
# This is a test geometry file. filename: b_channel_karman.pgm
6 82
3
3 3 3 3 3 3
3 0 0 0 0 3
3 0 0 0 0 3
3 0 0 0 0 3
3 0 0 0 0 3
3 0 0 0 0 3
3 0 0 0 0 3
3 0 0 0 0 3
3 0 0 0 0 3
3 0 0 0 0 3
3 0 0 0 0 3
3 0 0 0 0 3
3 0 0 0 0 3
3 0 0 0 0 3
3 0 0 0 0 3
3 0 0 0 0 3
3 0 0 0 0 3
3 0 0 0 0 3
3 0 0 0 0 3
3 0 0 0 0 3
3 0 0 0 0 3
3 0 0 0 0 3
3 0 0 0 0 3
3 0 0 0 0 3
3 0 0 0 0 3
3 0 0 0 0 3
3 0 0 0 0 3
3 0 0 0 0 3
3 0 0 0 0 3
3 0 0 0 0 3
3 0 0 0 0 3
3 0 0 0 0 3
3 0 0 0 0 3
3 0 0 0 0 3
3 0 0 0 0 3
3 0 0 0 0 3
3 0 0 0 0 3
3 0 0 0 0 3
3 0 0 0 0 3
3 0 0 0 0 3
3 0 0 0 0 3
3 0 0 0 0 3
3 0 0 0 0 3
3 0 0 0 0 3
3 0 0 0 0 3
3 0 0 0 0 3
3 0 0 0 0 3
3 0 0 0 0 3
3 0 0 0 0 3
3 0 0 0 0 3
3 0 0 0 0 3
3 0 0 0 0 3
3 0 0 0 0 3
3 0 0 0 0 3
3 0 0 0 0 3
3 0 0 0 0 3
3 0 0 0 0 3
3 0 0 0 0 3
3 0 0 0 0 3
3 0 0 0 0 3
3 0 0 0 0 3
3 0 0 0 0 3
3 0 0 0 0 3
3 0 0 0 0 3
3 0 0 0 0 3
3 0 0 0 0 3
3 0 0 0 0 3
3 0 0 0 0 3
3 0 0 0 0 3
3 0 0 0 0 3
3 0 0 0 0 3
3 0 0 0 0 3
3 0 0 0 0 3
3 0 0 0 0 3
3 0 0 0 0 3
3 0 0 0 0 3
3 0 0 0 0 3
3 0 0 0 0 3
3 0 0 0 0 3
3 0 0 0 0 3
3 0 0 0 0 3
3 3 3 3 3 3
